<svg width="150" height="79" viewBox="0 0 150 79" fill="none" xmlns="http://www.w3.org/2000/svg">
<g clip-path="url(#clip0_702_509)">
<path d="M29.2722 73.9031C28.5815 64.6157 22.7794 38.2239 5.09698 6.9563" stroke="#45BAA5" stroke-width="4"/>
<path d="M29.352 73.9031C28.3782 65.8692 35.9252 40.8605 73.9034 5.09668" stroke="#45BAA5" stroke-width="5"/>
<ellipse cx="33.9957" cy="25.7386" rx="6.88065" ry="6.88064" fill="#45BAA5"/>
</g>
<rect x="7.59698" y="7.59668" width="63.8065" height="63.8064" rx="31.9032" stroke="#45BAA5" stroke-width="5"/>
<path d="M99.3397 58.3583H92.6333L79 23.6417H85.3601L93.7982 46.2299L94.3335 47.9305L95.9707 53.8342L97.0727 50.0802L98.3007 46.2941L106.991 23.6417H113.319L99.3397 58.3583Z" fill="#45BAA5"/>
<path d="M125.693 42.2193C125.693 46.1123 126.533 49.1604 128.212 51.3636C129.912 53.5668 132.232 54.6684 135.17 54.6684C137.332 54.6684 139.221 54.1979 140.838 53.2567C142.475 52.2941 143.566 50.9893 144.112 49.3422L149.087 50.7861C148.163 53.4385 146.463 55.4706 143.986 56.8824C141.53 58.2941 138.592 59 135.17 59C130.217 59 126.407 57.4278 123.741 54.2834C121.075 51.139 119.742 46.6364 119.742 40.7754C119.742 35.0642 121.044 30.6791 123.647 27.6203C126.27 24.5401 130.049 23 134.981 23C139.914 23 143.65 24.5294 146.19 27.5882C148.73 30.6471 150 35.2674 150 41.4492V42.2193H125.693ZM135.044 27.2674C132.232 27.2674 130.007 28.2086 128.369 30.0909C126.732 31.9519 125.861 34.5187 125.756 37.7914H144.144C143.556 30.7754 140.523 27.2674 135.044 27.2674Z" fill="#45BAA5"/>
<defs>
<clipPath id="clip0_702_509">
<rect x="5.09698" y="5.09668" width="68.8065" height="68.8064" rx="34.4032" fill="white"/>
</clipPath>
</defs>
</svg>
