<svg width="191" height="54" viewBox="0 0 191 54" fill="none" xmlns="http://www.w3.org/2000/svg">
<path d="M11.0883 17.5527C9.86435 17.3368 8.76441 16.9566 7.78849 16.412C6.81994 15.8687 6.02637 15.1738 5.40779 14.3273C4.7892 13.4808 4.36771 12.4866 4.14333 11.3447C3.92631 10.204 3.94132 8.93326 4.18834 7.53234C4.41845 6.22728 4.82251 5.07833 5.40051 4.08549C5.9785 3.09265 6.7068 2.28216 7.58541 1.65403C8.42932 1.05019 9.41357 0.642146 10.5381 0.429905C11.6701 0.218965 12.8628 0.224003 14.1163 0.44502C14.8093 0.56723 15.4252 0.717641 15.9639 0.896254C16.5113 1.06879 17.0099 1.25934 17.4596 1.46789C17.9289 1.69509 18.3471 1.93227 18.714 2.17943C19.0897 2.42052 19.4156 2.64145 19.6919 2.84222L18.9879 6.83483L18.5013 6.74902C18.326 6.53566 18.1013 6.27937 17.8272 5.98015C17.5604 5.68223 17.2488 5.38019 16.8922 5.07404C16.5283 4.7666 16.1247 4.49016 15.6814 4.24474C15.2381 3.99933 14.7473 3.82916 14.2091 3.73426C13.6119 3.62895 13.0272 3.62469 12.4552 3.72149C11.8844 3.81091 11.3321 4.03283 10.7983 4.38725C10.2891 4.73082 9.83707 5.22509 9.44206 5.87007C9.05441 6.51635 8.77348 7.3335 8.59927 8.32151C8.41725 9.35377 8.40892 10.2418 8.57427 10.9856C8.74699 11.7307 9.01944 12.3413 9.39163 12.8174C9.76989 13.3023 10.2199 13.6819 10.7417 13.9564C11.2648 14.2235 11.7955 14.4045 12.3337 14.4994C12.8498 14.5904 13.3722 14.6027 13.9009 14.5363C14.437 14.4711 14.9422 14.3435 15.4167 14.1535C15.8157 14.0034 16.1915 13.834 16.544 13.6453C16.8966 13.4566 17.188 13.2913 17.4183 13.1494L17.8607 13.2274L17.1665 17.1647C16.7211 17.2763 16.296 17.38 15.8914 17.4759C15.4868 17.5718 15.0676 17.6423 14.6339 17.6875C14.0684 17.7474 13.5425 17.7763 13.0563 17.7742C12.5701 17.7721 11.9141 17.6983 11.0883 17.5527Z" fill="#00AAFF"/>
<path d="M23.8526 19.4727L19.8711 18.7706L22.9055 1.56146L26.8871 2.26352L23.8526 19.4727Z" fill="#00AAFF"/>
<path d="M31.5945 20.8378L27.613 20.1357L29.803 7.71549L33.7845 8.41754L31.5945 20.8378ZM34.2072 6.66747L30.0044 5.92641L30.5368 2.90707L34.7396 3.64813L34.2072 6.66747Z" fill="#00AAFF"/>
<path d="M41.7664 22.9734C40.6825 22.7823 39.7136 22.4784 38.8595 22.0618C38.0129 21.6464 37.3052 21.1111 36.7365 20.4558C36.1752 19.8019 35.7861 19.0338 35.5691 18.1517C35.3521 17.2695 35.3405 16.2792 35.5342 15.1806C35.7383 14.023 36.1062 13.0577 36.6378 12.2847C37.1768 11.5131 37.8416 10.9119 38.6322 10.4811C39.3955 10.0759 40.2373 9.82902 41.1576 9.74041C42.0779 9.65181 43.0099 9.69071 43.9537 9.85712C44.8016 10.0066 45.5669 10.2366 46.2496 10.5471C46.9323 10.8575 47.5574 11.2148 48.1247 11.6189L47.526 15.0143L46.962 14.9148C46.8305 14.7548 46.6698 14.5668 46.4798 14.3509C46.2972 14.1362 46.0623 13.9161 45.7752 13.6906C45.5015 13.4751 45.1931 13.2839 44.85 13.117C44.5082 12.9427 44.0977 12.8133 43.6184 12.7288C42.5567 12.5415 41.6784 12.7364 40.9837 13.3133C40.2977 13.8842 39.8526 14.7484 39.6485 15.906C39.4379 17.1005 39.5692 18.0587 40.0425 18.7808C40.5231 19.5042 41.3017 19.9607 42.3782 20.1506C42.8796 20.239 43.3391 20.263 43.7567 20.2226C44.1831 20.1761 44.5426 20.0989 44.8353 19.9908C45.112 19.8876 45.3605 19.7717 45.5808 19.6433C45.8011 19.5149 46.006 19.3876 46.1956 19.2614L46.7596 19.3608L46.1609 22.7562C45.4822 22.9406 44.785 23.0572 44.0694 23.1058C43.3599 23.1632 42.5922 23.1191 41.7664 22.9734Z" fill="#00AAFF"/>
<path d="M61.8764 26.1773L57.2423 25.3602L54.7121 19.3376L53.3962 20.4626L52.6746 24.5547L48.6931 23.8527L51.7275 6.64356L55.709 7.34561L53.8974 17.6202L59.1559 12.8912L63.7457 13.7005L58.3336 18.2656L61.8764 26.1773Z" fill="#00AAFF"/>
<path d="M79.7233 25.9829L80.1796 23.3949C79.6336 23.3442 79.04 23.3042 78.399 23.2748C77.7593 23.238 77.2681 23.2426 76.9255 23.2886C76.5052 23.3438 76.1667 23.4741 75.91 23.6798C75.662 23.8793 75.5035 24.1745 75.4346 24.5652C75.3891 24.8233 75.3741 25.0373 75.3898 25.2073C75.4054 25.3774 75.4887 25.5517 75.6397 25.7304C75.7833 25.9077 75.9665 26.0541 76.1895 26.1694C76.4137 26.2774 76.7765 26.3756 77.2779 26.464C77.676 26.5342 78.0922 26.5239 78.5263 26.4332C78.9678 26.3438 79.3668 26.1937 79.7233 25.9829ZM79.384 27.9073C79.1415 28.0318 78.8417 28.1804 78.4843 28.353C78.1269 28.5257 77.7965 28.6537 77.4929 28.737C77.0709 28.8451 76.6426 28.9026 76.2081 28.9096C75.7722 28.924 75.3035 28.8869 74.8022 28.7985C73.6225 28.5905 72.6988 28.0513 72.0312 27.181C71.3636 26.3106 71.1299 25.3077 71.3301 24.1722C71.49 23.2653 71.8235 22.56 72.3304 22.0564C72.8373 21.5528 73.4924 21.2008 74.2956 21.0003C75.0914 20.7985 76.0473 20.7238 77.1633 20.7761C78.2792 20.8284 79.4292 20.9248 80.6132 21.0651L80.6249 20.9988C80.7458 20.3131 80.5489 19.7918 80.034 19.4349C79.5204 19.0707 78.718 18.7923 77.6268 18.5999C76.9706 18.4842 76.2493 18.4787 75.463 18.5833C74.678 18.6806 74.1123 18.7633 73.7657 18.8314L73.4008 18.767L73.9293 15.7698C74.369 15.7333 75.0738 15.7246 76.0436 15.7435C77.022 15.7564 77.9868 15.8467 78.938 16.0144C81.2016 16.4135 82.773 17.0517 83.6522 17.929C84.5402 18.8002 84.8528 19.9805 84.5902 21.4699L83.1003 29.9196L79.1519 29.2234L79.384 27.9073Z" fill="#00AAFF"/>
<path d="M99.2366 32.7649L95.2329 32.0589L96.3192 25.8986C96.4076 25.3972 96.4695 24.895 96.505 24.3919C96.5418 23.8814 96.5183 23.4971 96.4346 23.2391C96.3352 22.9403 96.1528 22.7028 95.8874 22.5268C95.6293 22.352 95.2459 22.2198 94.7371 22.1301C94.3758 22.0664 93.9968 22.0604 93.5999 22.112C93.2105 22.165 92.7755 22.2822 92.2949 22.4635L90.7426 31.2672L86.7611 30.5651L88.9511 18.1449L92.9326 18.8469L92.6908 20.2184C93.4962 19.7902 94.2493 19.4858 94.9501 19.3053C95.6583 19.1261 96.4106 19.1067 97.2069 19.2471C98.5488 19.4837 99.5269 20.0591 100.141 20.9733C100.763 21.8888 100.936 23.1244 100.662 24.6801L99.2366 32.7649Z" fill="#00AAFF"/>
<path d="M114.986 35.5419L111.004 34.8398L111.232 33.5458C110.448 33.9853 109.734 34.2851 109.09 34.4452C108.446 34.6053 107.733 34.6165 106.951 34.4787C105.44 34.2122 104.333 33.4165 103.632 32.0916C102.93 30.7667 102.754 29.1162 103.102 27.1402C103.288 26.0858 103.604 25.1798 104.049 24.422C104.503 23.6582 105.047 23.0319 105.68 22.543C106.279 22.0784 106.963 21.758 107.731 21.5818C108.501 21.3982 109.244 21.3695 109.959 21.4956C110.704 21.6269 111.298 21.8153 111.741 22.0607C112.193 22.3001 112.648 22.5856 113.107 22.9173L114.039 17.6307L118.02 18.3328L114.986 35.5419ZM111.609 31.4113L112.683 25.3173C112.424 25.1499 112.144 25.0131 111.843 24.9069C111.543 24.8007 111.264 24.7248 111.005 24.6793C109.958 24.4947 109.115 24.6844 108.476 25.2483C107.838 25.8048 107.417 26.6619 107.213 27.8195C106.999 29.0361 107.053 29.9579 107.375 30.585C107.7 31.2047 108.326 31.5965 109.255 31.7603C109.616 31.824 110.012 31.8253 110.44 31.764C110.871 31.6955 111.26 31.5779 111.609 31.4113Z" fill="#00AAFF"/>
<path d="M143.974 40.6532L139.749 39.9083L141.693 28.8816L137.379 35.4991L134.448 34.9823L132.657 27.2883L130.713 38.315L126.709 37.609L129.613 21.1409L134.546 22.0107L136.794 30.9257L141.945 23.3153L146.877 24.1851L143.974 40.6532Z" fill="#00AAFF"/>
<path d="M151.948 42.0593L147.966 41.3572L150.156 28.937L154.138 29.6391L151.948 42.0593ZM154.56 27.889L150.358 27.1479L150.89 24.1286L155.093 24.8697L154.56 27.889Z" fill="#00AAFF"/>
<path d="M168.184 44.9221L164.18 44.2162L165.266 38.0558C165.355 37.5544 165.417 37.0522 165.452 36.5491C165.489 36.0386 165.465 35.6543 165.382 35.3963C165.282 35.0975 165.1 34.8601 164.834 34.684C164.576 34.5093 164.193 34.377 163.684 34.2873C163.323 34.2236 162.944 34.2176 162.547 34.2693C162.158 34.3222 161.723 34.4394 161.242 34.6208L159.69 43.4244L155.708 42.7223L157.898 30.3021L161.88 31.0042L161.638 32.3756C162.443 31.9474 163.196 31.6431 163.897 31.4625C164.605 31.2833 165.358 31.2639 166.154 31.4043C167.496 31.641 168.474 32.2163 169.088 33.1305C169.71 34.046 169.884 35.2816 169.609 36.8374L168.184 44.9221Z" fill="#00AAFF"/>
<path d="M179.816 46.8592C179.369 46.8944 178.901 46.8992 178.411 46.8737C177.92 46.8555 177.328 46.7854 176.635 46.6631C175.086 46.3901 173.988 45.8733 173.339 45.1127C172.697 44.3533 172.51 43.2142 172.778 41.6953L173.802 35.8889L172.165 35.6003L172.641 32.9017L174.278 33.1903L174.904 29.6401L178.885 30.3421L178.259 33.8924L181.987 34.5496L181.511 37.2482L177.784 36.591L177.007 40.9928C176.931 41.4278 176.867 41.8082 176.818 42.1339C176.768 42.4596 176.775 42.7613 176.84 43.0388C176.898 43.3151 177.042 43.5534 177.273 43.7537C177.513 43.948 177.883 44.0893 178.384 44.1777C178.591 44.2141 178.868 44.2174 179.215 44.1874C179.57 44.1587 179.82 44.1192 179.966 44.0689L180.298 44.1274L179.816 46.8592Z" fill="#00AAFF"/>
<path d="M190.077 31.8024L187.501 43.4361L183.896 42.8004L185.454 30.9872L190.077 31.8024ZM187.096 48.2569L182.628 47.469L183.143 44.5492L187.611 45.3371L187.096 48.2569Z" fill="#00AAFF"/>
<path d="M1.12437 18.2476L188.943 51.365L188.531 53.6986L0.712891 20.5812L1.12437 18.2476Z" fill="#00AAFF"/>
</svg>
