<svg width="11" height="5" viewBox="0 0 11 5" fill="none" xmlns="http://www.w3.org/2000/svg">
<path d="M2.96258 1.87C3.07258 1.87 3.15758 1.9 3.21758 1.96C3.28091 2.02 3.31258 2.10333 3.31258 2.21C3.31258 2.23667 3.30924 2.265 3.30258 2.295C3.29924 2.32167 3.29424 2.345 3.28758 2.365C3.24425 2.35833 3.19591 2.35333 3.14258 2.35C3.08924 2.34333 3.02591 2.34 2.95258 2.34C2.80924 2.34 2.66424 2.35333 2.51758 2.38C2.37091 2.40333 2.23091 2.42333 2.09758 2.44C2.02091 2.61667 1.95091 2.78833 1.88758 2.955C1.82424 3.11833 1.76924 3.26833 1.72258 3.405C1.67924 3.54167 1.64424 3.66 1.61758 3.76C1.59424 3.86 1.58091 3.935 1.57758 3.985C1.84758 3.92833 2.11924 3.88 2.39258 3.84C2.66924 3.8 2.95924 3.77 3.26258 3.75C3.29924 3.80667 3.32924 3.86833 3.35258 3.935C3.37924 4.00167 3.39258 4.07333 3.39258 4.15C3.39258 4.17 3.39258 4.19167 3.39258 4.215C3.39258 4.23833 3.38924 4.26167 3.38258 4.285C3.28925 4.28167 3.19091 4.27833 3.08758 4.275C2.98424 4.275 2.84924 4.275 2.68258 4.275C2.57258 4.275 2.46758 4.27667 2.36758 4.28C2.27091 4.28667 2.17258 4.295 2.07258 4.305C1.97258 4.315 1.86591 4.32833 1.75258 4.345C1.64258 4.36167 1.51758 4.38167 1.37758 4.405C1.22424 4.345 1.07591 4.19833 0.932578 3.965C0.989245 3.845 1.06758 3.66333 1.16758 3.42C1.27091 3.17333 1.40091 2.845 1.55758 2.435C1.40758 2.38833 1.30924 2.305 1.26258 2.185C1.27924 2.16833 1.32758 2.14833 1.40758 2.125C1.48758 2.09833 1.58591 2.07167 1.70258 2.045C1.75258 1.915 1.79424 1.80167 1.82758 1.705C1.86424 1.60833 1.89591 1.51833 1.92258 1.435C1.94924 1.34833 1.97258 1.265 1.99258 1.185C2.01591 1.10167 2.03758 1.01167 2.05758 0.915C1.94091 0.908333 1.84924 0.876667 1.78258 0.82C1.71591 0.76 1.68258 0.683333 1.68258 0.59C1.68258 0.563333 1.68591 0.531666 1.69258 0.495C1.70258 0.458333 1.71258 0.426667 1.72258 0.4C1.78924 0.41 1.85258 0.416667 1.91258 0.42C1.97591 0.423333 2.05758 0.425 2.15758 0.425C2.36758 0.425 2.56424 0.42 2.74758 0.41C2.93091 0.396666 3.09591 0.383333 3.24258 0.37C3.39258 0.356667 3.52091 0.345 3.62758 0.335C3.73424 0.321666 3.81591 0.315 3.87258 0.315C3.94924 0.315 4.01758 0.355 4.07758 0.435C4.13758 0.515 4.18258 0.628333 4.21258 0.775C4.10925 0.765 4.02425 0.758333 3.95758 0.755C3.89424 0.751666 3.83758 0.75 3.78758 0.75C3.60424 0.75 3.43591 0.76 3.28258 0.78C3.13258 0.796666 2.98758 0.815 2.84758 0.835C2.82758 0.865 2.80424 0.903333 2.77758 0.95C2.75424 0.996667 2.72258 1.06167 2.68258 1.145C2.64258 1.22833 2.59258 1.33333 2.53258 1.46C2.47591 1.58667 2.40591 1.745 2.32258 1.935C2.44924 1.915 2.56758 1.9 2.67758 1.89C2.79091 1.87667 2.88591 1.87 2.96258 1.87ZM4.07738 2.23C4.07738 2.17 4.08072 2.11333 4.08738 2.06C4.09738 2.00667 4.11572 1.96167 4.14238 1.925C4.16905 1.885 4.20572 1.855 4.25238 1.835C4.29905 1.81167 4.36072 1.8 4.43738 1.8C4.48405 1.8 4.53572 1.805 4.59238 1.815C4.65238 1.825 4.69572 1.84333 4.72238 1.87C4.70905 1.92667 4.69738 1.97667 4.68738 2.02C4.68072 2.06333 4.67405 2.11167 4.66738 2.165C4.66405 2.215 4.66072 2.27667 4.65738 2.35C4.65405 2.42 4.65072 2.51167 4.64738 2.625C4.64072 2.85167 4.62905 3.055 4.61238 3.235C4.59905 3.41167 4.56572 3.58833 4.51238 3.765C4.51238 3.77833 4.51738 3.785 4.52738 3.785C4.57738 3.74833 4.63405 3.695 4.69738 3.625C4.76072 3.555 4.82738 3.47667 4.89738 3.39C4.96738 3.3 5.03738 3.205 5.10738 3.105C5.17738 3.005 5.24238 2.90667 5.30238 2.81C5.38238 2.67 5.47072 2.495 5.56738 2.285C5.66405 2.075 5.74405 1.85 5.80738 1.61C5.82738 1.61 5.85238 1.615 5.88238 1.625C5.91572 1.63167 5.94738 1.64167 5.97738 1.655C6.01072 1.665 6.03905 1.67667 6.06238 1.69C6.08905 1.70333 6.10738 1.715 6.11738 1.725C6.11072 1.86833 6.07572 2.015 6.01238 2.165C5.95238 2.315 5.87905 2.46 5.79238 2.6C5.70572 2.74 5.61405 2.87167 5.51738 2.995C5.42072 3.11833 5.33238 3.225 5.25238 3.315C5.09238 3.50167 4.93072 3.66833 4.76738 3.815C4.60738 3.96167 4.41572 4.10333 4.19238 4.24C4.10572 4.20667 4.03738 4.16167 3.98738 4.105C3.93738 4.05167 3.91238 3.995 3.91238 3.935C3.91238 3.895 3.92072 3.85 3.93738 3.8C3.95738 3.74667 3.97905 3.68 4.00238 3.6C4.02572 3.51667 4.04572 3.41333 4.06238 3.29C4.08238 3.16667 4.09238 3.01 4.09238 2.82C4.09238 2.71 4.08905 2.6 4.08238 2.49C4.07905 2.37667 4.07738 2.29 4.07738 2.23ZM7.76859 1.98C7.80193 1.98 7.84026 1.98667 7.88359 2C7.93026 2.01 7.97193 2.025 8.00859 2.045C8.04526 2.06167 8.07526 2.08 8.09859 2.1C8.12526 2.12 8.13859 2.13833 8.13859 2.155C8.07193 2.295 8.01026 2.43667 7.95359 2.58C7.89693 2.72 7.84859 2.855 7.80859 2.985C7.76859 3.115 7.73693 3.23667 7.71359 3.35C7.69359 3.46333 7.68359 3.56167 7.68359 3.645C7.68359 3.73833 7.69359 3.81667 7.71359 3.88C7.73359 3.94 7.76693 3.98333 7.81359 4.01C7.77359 4.03667 7.72193 4.05833 7.65859 4.075C7.59526 4.09167 7.53859 4.1 7.48859 4.1C7.30859 4.1 7.21859 3.97667 7.21859 3.73C7.21859 3.54 7.28193 3.28 7.40859 2.95C7.34193 3.10333 7.26526 3.24833 7.17859 3.385C7.09193 3.51833 7.00359 3.63667 6.91359 3.74C6.82359 3.84333 6.73193 3.92833 6.63859 3.995C6.54859 4.05833 6.46526 4.09667 6.38859 4.11C6.26526 4.10333 6.16526 4.045 6.08859 3.935C6.01193 3.82167 5.97359 3.67833 5.97359 3.505C5.97359 3.31833 6.01359 3.12167 6.09359 2.915C6.17359 2.70833 6.27526 2.51667 6.39859 2.34C6.52526 2.16333 6.66193 2.01667 6.80859 1.9C6.95526 1.78 7.09693 1.71667 7.23359 1.71C7.26693 1.72 7.30359 1.74 7.34359 1.77C7.38693 1.8 7.42693 1.835 7.46359 1.875C7.50359 1.915 7.53693 1.95667 7.56359 2C7.59026 2.04 7.60526 2.075 7.60859 2.105C7.47526 2.125 7.33693 2.19 7.19359 2.3C7.05359 2.41 6.92526 2.54333 6.80859 2.7C6.69526 2.85333 6.60193 3.01833 6.52859 3.195C6.45526 3.37167 6.41859 3.53667 6.41859 3.69C6.41859 3.75333 6.44193 3.79333 6.48859 3.81C6.58526 3.79 6.69693 3.70833 6.82359 3.565C6.95026 3.41833 7.10359 3.19333 7.28359 2.89C7.31693 2.83 7.35359 2.76333 7.39359 2.69C7.43693 2.61667 7.48026 2.54 7.52359 2.46C7.56693 2.38 7.60859 2.3 7.64859 2.22C7.69193 2.13667 7.73193 2.05667 7.76859 1.98ZM9.20223 1.575C9.28889 1.60167 9.37056 1.66167 9.44723 1.755C9.52389 1.845 9.58056 1.945 9.61723 2.055C9.58056 2.145 9.52389 2.25333 9.44723 2.38C9.37056 2.50667 9.29389 2.63667 9.21723 2.77C9.14056 2.9 9.07056 3.025 9.00723 3.145C8.94723 3.26167 8.91223 3.35833 8.90223 3.435C8.95556 3.37833 9.01389 3.31333 9.07723 3.24C9.14389 3.16333 9.20723 3.08833 9.26723 3.015C9.33056 2.93833 9.38889 2.87 9.44223 2.81C9.49556 2.74667 9.53723 2.7 9.56723 2.67C9.63056 2.60333 9.70556 2.52667 9.79223 2.44C9.87889 2.35 9.96889 2.26667 10.0622 2.19C10.1589 2.11 10.2556 2.04333 10.3522 1.99C10.4489 1.93333 10.5372 1.905 10.6172 1.905C10.7039 1.905 10.7756 1.935 10.8322 1.995C10.8922 2.05167 10.9389 2.11167 10.9722 2.175C10.9722 2.18167 10.9589 2.19167 10.9322 2.205C10.9089 2.215 10.8739 2.24667 10.8272 2.3C10.7806 2.36 10.7272 2.44333 10.6672 2.55C10.6106 2.65333 10.5539 2.76667 10.4972 2.89C10.4439 3.01 10.3989 3.13333 10.3622 3.26C10.3256 3.38667 10.3072 3.50167 10.3072 3.605C10.3072 3.68833 10.3172 3.74167 10.3372 3.765C10.3606 3.78833 10.3922 3.8 10.4322 3.8C10.4689 3.8 10.5072 3.79167 10.5472 3.775C10.5872 3.75833 10.6189 3.75 10.6422 3.75C10.6556 3.75667 10.6656 3.77167 10.6722 3.795C10.6822 3.815 10.6872 3.83333 10.6872 3.85C10.6606 3.87333 10.6289 3.89667 10.5922 3.92C10.5556 3.94333 10.5172 3.965 10.4772 3.985C10.4372 4.005 10.3972 4.02167 10.3572 4.035C10.3206 4.04833 10.2872 4.055 10.2572 4.055C10.1606 4.055 10.0806 4.04 10.0172 4.01C9.95723 3.98333 9.90889 3.94667 9.87223 3.9C9.83889 3.85333 9.81556 3.79833 9.80223 3.735C9.78889 3.66833 9.78223 3.59833 9.78223 3.525C9.78223 3.485 9.78556 3.44 9.79223 3.39C9.79889 3.34 9.81223 3.28167 9.83223 3.215C9.85223 3.145 9.88056 3.06333 9.91723 2.97C9.95389 2.87333 10.0006 2.75833 10.0572 2.625C10.0506 2.625 10.0056 2.64833 9.92223 2.695C9.83889 2.74167 9.74889 2.81333 9.65223 2.91C9.49556 3.06 9.35389 3.20833 9.22723 3.355C9.10389 3.50167 8.97723 3.665 8.84723 3.845C8.77389 3.94833 8.70889 4.035 8.65223 4.105C8.59889 4.17833 8.55223 4.22667 8.51223 4.25C8.44223 4.21 8.39056 4.15333 8.35723 4.08C8.32389 4.01 8.29889 3.93667 8.28223 3.86C8.28223 3.79667 8.29056 3.71667 8.30723 3.62C8.32723 3.52333 8.35223 3.41667 8.38223 3.3C8.41556 3.18 8.45556 3.055 8.50223 2.925C8.54889 2.795 8.60056 2.665 8.65723 2.535C8.78389 2.24167 8.89889 2.01167 9.00223 1.845C9.10889 1.67833 9.17556 1.58833 9.20223 1.575Z" fill="black"/>
</svg>
